# xmcd CD database file
#
# Track frame offsets:
#	150
#	18166
#	36480
#	54288
#	74574
#	92627
#	104809
#	123032
#	141141
#	161366
#	177892
#	198900
#
# Disc length: 2863 seconds
#
# Revision: 0
# Processed by: cddbd v1.5.2PL0 Copyright (c) Steve Scherf et al.
# Submitted via: CDex 1.51
#
DISCID=9f0b2d0c
DTITLE=Summerlee Staten - Summerlee Staten
DYEAR=2001
DGENRE=New Age
TTITLE0=Falling Up
TTITLE1=Chelsea
TTITLE2=Stranded
TTITLE3=You Make Me Come Alive
TTITLE4=Montreal
TTITLE5=Love OF My Life
TTITLE6=Tell Me Something I Don't Know
TTITLE7=A Season Of Rhyme
TTITLE8=Caged Bird
TTITLE9=Pilgrimage
TTITLE10=As Far As I Know
TTITLE11=Orpheus (Raising Eurydice) 
EXTD=YEAR: 2001
EXTT0=
EXTT1=
EXTT2=
EXTT3=
EXTT4=
EXTT5=
EXTT6=
EXTT7=
EXTT8=
EXTT9=
EXTT10=
EXTT11=
PLAYORDER=
